<svg id="_x33_0" enable-background="new 0 0 64 64" height="512" viewBox="0 0 64 64" width="512" xmlns="http://www.w3.org/2000/svg"><g><path d="m30 40c0 1.654 1.346 3 3 3s3-1.346 3-3v-1h-6z"/><path d="m36 31.123-.588-2.351c-.657.141-1.33.228-2.017.228h-.789c-.688 0-1.361-.087-2.018-.228l-.588 2.351v5.877h6z"/><path d="m39.723 23.613c.836-1.254 1.277-2.713 1.277-4.218v-5.479c0-1.608-1.308-2.916-2.915-2.916-.529 0-1.048.144-1.5.415l-2.17 1.303c-1.399.839-3.001 1.282-4.631 1.282h-2.784c-1.103 0-2 .897-2 2v3.395c0 1.506.441 2.965 1.277 4.219 1.414 2.12 3.78 3.386 6.328 3.386h.789c2.549 0 4.915-1.266 6.329-3.387zm-13.278-4.445 1.752-1.168-1.752-1.168 1.109-1.664 4.249 2.832-4.248 2.832zm11.162 4.639c-.769.769-1.793 1.193-2.881 1.193-.629 0-1.258-.148-1.821-.43l-.703-.353c-.78-.388-1.777-.229-2.395.39l-.1.1-1.414-1.414.1-.1c1.214-1.214 3.165-1.531 4.703-.764l.703.353c.778.386 1.776.228 2.395-.39l.1-.1 1.414 1.414zm-3.41-5.807 4.248-2.832 1.109 1.664-1.751 1.168 1.752 1.168-1.109 1.664z"/><path d="m20.436 31.582c.86-.368 1.763-.62 2.684-.752l5.074-.725.49-1.958c-1.626-.728-3.049-1.892-4.07-3.424-1.056-1.584-1.614-3.426-1.614-5.328v-3.395c0-2.206 1.794-4 4-4h2.784c1.268 0 2.514-.345 3.603-.997l2.169-1.303c.762-.458 1.637-.7 2.529-.7 2.71 0 4.915 2.205 4.915 4.915v5.479c0 1.902-.558 3.744-1.613 5.328-1.022 1.534-2.447 2.698-4.076 3.427l.472 1.952 5.682.812c.985.141 1.974.091 2.926-.114.399-3.604.609-7.256.609-10.87v-2.929c0-2.743-.795-5.377-2.286-7.653l-.854-.107c-1.355-.169-2.434-1.16-2.76-2.435l-2.066-.517c-1.198-.298-2.034-1.369-2.034-2.603 0-.031.008-.06.009-.09-1.296-.388-2.639-.595-4.009-.595-7.72 0-14 6.28-14 14v2.929c0 3.99.26 8.01.746 11.98.225-.117.454-.226.69-.327z"/><path d="m18 45.855c0-2.067.605-4.068 1.752-5.786l1.072-1.608c.77-1.154 1.176-2.497 1.176-3.883v-1.431c-.261.083-.523.165-.776.274-3.173 1.36-5.224 4.47-5.224 7.923v19.656h5v-6.145c0-.981-.324-1.954-.913-2.74-1.346-1.794-2.087-4.016-2.087-6.26z"/><path d="m43.512 39.57c-.99-1.484-1.512-3.21-1.512-4.992v-1.853l-4-.571v7.846c0 2.757-2.243 5-5 5s-5-2.243-5-5l.026-7.85-4.026.575v1.853c0 1.782-.522 3.508-1.512 4.992l-1.072 1.608c-.927 1.389-1.416 3.007-1.416 4.677 0 1.813.599 3.61 1.687 5.061.846 1.129 1.313 2.528 1.313 3.939v6.145h20v-6.145c0-1.411.467-2.811 1.313-3.939 1.088-1.45 1.687-3.248 1.687-5.061 0-1.671-.489-3.288-1.416-4.677z"/><path d="m60.051 21.206-6.065-12.887c-.519-1.101-1.295-2.085-2.246-2.846-1.993-1.595-4.497-2.473-7.05-2.473h-5.006c-.377 0-.684.307-.684.685 0 .314.214.588.519.665l3.481.869v.781c0 .637.477 1.177 1.108 1.256l6.706.838 3.474 14.762c.501 2.129-.036 4.404-1.437 6.085l-.321.385c-1.946 2.334-4.806 3.674-7.846 3.674-.228 0-.455-.034-.684-.048v1.627c0 1.386.406 2.729 1.176 3.883l1.072 1.608c.605.906 1.048 1.894 1.343 2.926l10.487-10.487c1.884-1.886 2.922-4.391 2.922-7.056 0-1.459-.328-2.928-.949-4.247z"/><path d="m9.658 3.553.895 1.789c.511 1.022 1.54 1.658 2.683 1.658h1.527c.382 0 .725.212.895.553l.447.895 1.789-.895-.447-.895c-.511-1.022-1.54-1.658-2.683-1.658h-1.527c-.382 0-.725-.212-.895-.553l-.895-1.789c-.511-1.022-1.54-1.658-2.683-1.658h-1.764v2h1.764c.382 0 .724.212.894.553z"/><path d="m11.081 12.077-.933.622c-.687.458-1.675.361-2.259-.224l-2.183-2.183-1.414 1.414 2.183 2.183c.706.707 1.683 1.111 2.68 1.111.75 0 1.477-.22 2.103-.637l.933-.622c.394-.263.926-.211 1.262.125l.841.841 1.414-1.414-.841-.841c-1.009-1.008-2.602-1.165-3.786-.375z"/><path d="m12.447 18c-1.274 0-2.42.708-2.989 1.848l-.705 1.411c-.321.643-1.155.923-1.8.6-1.304-.654-2.888-.279-3.763.889l-1.99 2.652 1.6 1.2 1.99-2.653c.295-.393.83-.518 1.27-.299.461.23.978.352 1.493.352 1.274 0 2.42-.708 2.989-1.848l.705-1.411c.321-.642 1.156-.921 1.8-.6l1.506.753.895-1.789-1.507-.753c-.462-.23-.979-.352-1.494-.352z"/></g></svg>